<svg width="909" height="899" viewBox="0 0 909 899" fill="none" xmlns="http://www.w3.org/2000/svg">
<path d="M573.994 351.47L454.288 0L329.084 351.47H0L269.443 572.091L173.848 899L454.288 708.444L729.23 899L639.557 572.091L909 351.47H573.994Z" fill="url(#paint0_linear_377_4)"/>
<path d="M464.371 640.52C437.384 640.52 413.624 635.24 393.091 624.68C372.851 614.12 357.158 599.747 346.011 581.56C334.864 563.08 329.291 542.107 329.291 518.64C329.291 494.88 334.718 473.907 345.571 455.72C356.718 437.24 371.824 422.867 390.891 412.6C409.958 402.04 431.518 396.76 455.571 396.76C478.744 396.76 499.571 401.747 518.051 411.72C536.824 421.4 551.638 435.48 562.491 453.96C573.344 472.147 578.771 494 578.771 519.52C578.771 522.16 578.624 525.24 578.331 528.76C578.038 531.987 577.744 535.067 577.451 538H385.171V497.96H541.371L514.971 509.84C514.971 497.52 512.478 486.813 507.491 477.72C502.504 468.627 495.611 461.587 486.811 456.6C478.011 451.32 467.744 448.68 456.011 448.68C444.278 448.68 433.864 451.32 424.771 456.6C415.971 461.587 409.078 468.773 404.091 478.16C399.104 487.253 396.611 498.107 396.611 510.72V521.28C396.611 534.187 399.398 545.627 404.971 555.6C410.838 565.28 418.904 572.76 429.171 578.04C439.731 583.027 452.051 585.52 466.131 585.52C478.744 585.52 489.744 583.613 499.131 579.8C508.811 575.987 517.611 570.267 525.531 562.64L562.051 602.24C551.198 614.56 537.558 624.093 521.131 630.84C504.704 637.293 485.784 640.52 464.371 640.52Z" fill="#EDEDED"/>
<defs>
<linearGradient id="paint0_linear_377_4" x1="454.5" y1="0" x2="454.5" y2="899" gradientUnits="userSpaceOnUse">
<stop stop-color="#2F69FF"/>
<stop offset="0.9999" stop-color="#2F69FF" stop-opacity="0.6868"/>
<stop offset="1" stop-color="#2F69FF" stop-opacity="0.42"/>
</linearGradient>
</defs>
</svg>
