<svg width="4483" height="896" viewBox="0 0 4483 896" fill="none" xmlns="http://www.w3.org/2000/svg">
<path d="M626.054 350.297L495.491 0L358.931 350.297H0L293.881 570.182L189.615 896L495.491 706.08L795.37 896L697.563 570.182L844.504 460.239L991.444 350.297H626.054Z" fill="url(#paint0_linear_222_40)"/>
<path d="M500.096 609.52C473.109 609.52 449.349 604.24 428.816 593.68C408.576 583.12 392.882 568.747 381.736 550.56C370.589 532.08 365.016 511.107 365.016 487.64C365.016 463.88 370.442 442.907 381.296 424.72C392.442 406.24 407.549 391.867 426.616 381.6C445.682 371.04 467.242 365.76 491.296 365.76C514.469 365.76 535.296 370.747 553.776 380.72C572.549 390.4 587.362 404.48 598.216 422.96C609.069 441.147 614.496 463 614.496 488.52C614.496 491.16 614.349 494.24 614.056 497.76C613.762 500.987 613.469 504.067 613.176 507H420.896V466.96H577.096L550.696 478.84C550.696 466.52 548.202 455.813 543.216 446.72C538.229 437.627 531.336 430.587 522.536 425.6C513.736 420.32 503.469 417.68 491.736 417.68C480.002 417.68 469.589 420.32 460.496 425.6C451.696 430.587 444.802 437.773 439.816 447.16C434.829 456.253 432.336 467.107 432.336 479.72V490.28C432.336 503.187 435.122 514.627 440.696 524.6C446.562 534.28 454.629 541.76 464.896 547.04C475.456 552.027 487.776 554.52 501.856 554.52C514.469 554.52 525.469 552.613 534.856 548.8C544.536 544.987 553.336 539.267 561.256 531.64L597.776 571.24C586.922 583.56 573.282 593.093 556.856 599.84C540.429 606.293 521.509 609.52 500.096 609.52ZM963.354 365.76C982.127 365.76 998.7 369.573 1013.07 377.2C1027.74 384.533 1039.18 395.973 1047.39 411.52C1055.9 426.773 1060.15 446.427 1060.15 470.48V606H991.514V481.04C991.514 461.973 987.554 447.893 979.634 438.8C971.714 429.707 960.567 425.16 946.194 425.16C936.22 425.16 927.274 427.507 919.354 432.2C911.434 436.6 905.274 443.347 900.874 452.44C896.474 461.533 894.274 473.12 894.274 487.2V606H825.634V481.04C825.634 461.973 821.674 447.893 813.754 438.8C806.127 429.707 795.127 425.16 780.754 425.16C770.78 425.16 761.834 427.507 753.914 432.2C745.994 436.6 739.834 443.347 735.434 452.44C731.034 461.533 728.834 473.12 728.834 487.2V606H660.194V369.28H725.754V433.96L713.434 415.04C721.647 398.907 733.234 386.733 748.194 378.52C763.447 370.013 780.754 365.76 800.114 365.76C821.82 365.76 840.74 371.333 856.874 382.48C873.3 393.333 884.154 410.053 889.434 432.64L865.234 426.04C873.154 407.56 885.767 392.893 903.074 382.04C920.674 371.187 940.767 365.76 963.354 365.76ZM1261.6 609.52C1241.65 609.52 1224.2 605.12 1209.24 596.32C1194.28 587.52 1182.54 574.173 1174.04 556.28C1165.82 538.093 1161.72 515.213 1161.72 487.64C1161.72 459.773 1165.68 436.893 1173.6 419C1181.52 401.107 1192.96 387.76 1207.92 378.96C1222.88 370.16 1240.77 365.76 1261.6 365.76C1283.89 365.76 1303.84 370.893 1321.44 381.16C1339.33 391.133 1353.41 405.213 1363.68 423.4C1374.24 441.587 1379.52 463 1379.52 487.64C1379.52 512.573 1374.24 534.133 1363.68 552.32C1353.41 570.507 1339.33 584.587 1321.44 594.56C1303.84 604.533 1283.89 609.52 1261.6 609.52ZM1121.68 691.36V369.28H1187.24V417.68L1185.92 488.08L1190.32 558.04V691.36H1121.68ZM1249.72 553.2C1261.16 553.2 1271.28 550.56 1280.08 545.28C1289.17 540 1296.36 532.52 1301.64 522.84C1307.21 512.867 1310 501.133 1310 487.64C1310 473.853 1307.21 462.12 1301.64 452.44C1296.36 442.76 1289.17 435.28 1280.08 430C1271.28 424.72 1261.16 422.08 1249.72 422.08C1238.28 422.08 1228.01 424.72 1218.92 430C1209.82 435.28 1202.64 442.76 1197.36 452.44C1192.08 462.12 1189.44 473.853 1189.44 487.64C1189.44 501.133 1192.08 512.867 1197.36 522.84C1202.64 532.52 1209.82 540 1218.92 545.28C1228.01 550.56 1238.28 553.2 1249.72 553.2ZM1425.47 606V369.28H1491.03V436.16L1481.79 416.8C1488.83 400.08 1500.12 387.467 1515.67 378.96C1531.21 370.16 1550.13 365.76 1572.43 365.76V429.12C1569.49 428.827 1566.85 428.68 1564.51 428.68C1562.16 428.387 1559.67 428.24 1557.03 428.24C1538.25 428.24 1523 433.667 1511.27 444.52C1499.83 455.08 1494.11 471.653 1494.11 494.24V606H1425.47ZM1728.57 609.52C1701.59 609.52 1677.83 604.24 1657.29 593.68C1637.05 583.12 1621.36 568.747 1610.21 550.56C1599.07 532.08 1593.49 511.107 1593.49 487.64C1593.49 463.88 1598.92 442.907 1609.77 424.72C1620.92 406.24 1636.03 391.867 1655.09 381.6C1674.16 371.04 1695.72 365.76 1719.77 365.76C1742.95 365.76 1763.77 370.747 1782.25 380.72C1801.03 390.4 1815.84 404.48 1826.69 422.96C1837.55 441.147 1842.97 463 1842.97 488.52C1842.97 491.16 1842.83 494.24 1842.53 497.76C1842.24 500.987 1841.95 504.067 1841.65 507H1649.37V466.96H1805.57L1779.17 478.84C1779.17 466.52 1776.68 455.813 1771.69 446.72C1766.71 437.627 1759.81 430.587 1751.01 425.6C1742.21 420.32 1731.95 417.68 1720.21 417.68C1708.48 417.68 1698.07 420.32 1688.97 425.6C1680.17 430.587 1673.28 437.773 1668.29 447.16C1663.31 456.253 1660.81 467.107 1660.81 479.72V490.28C1660.81 503.187 1663.6 514.627 1669.17 524.6C1675.04 534.28 1683.11 541.76 1693.37 547.04C1703.93 552.027 1716.25 554.52 1730.33 554.52C1742.95 554.52 1753.95 552.613 1763.33 548.8C1773.01 544.987 1781.81 539.267 1789.73 531.64L1826.25 571.24C1815.4 583.56 1801.76 593.093 1785.33 599.84C1768.91 606.293 1749.99 609.52 1728.57 609.52ZM1999.99 694.88C1977.7 694.88 1956.14 692.093 1935.31 686.52C1914.78 681.24 1897.62 673.173 1883.83 662.32L1911.11 613.04C1921.08 621.253 1933.7 627.707 1948.95 632.4C1964.5 637.387 1979.75 639.88 1994.71 639.88C2019.06 639.88 2036.66 634.453 2047.51 623.6C2058.66 612.747 2064.23 596.613 2064.23 575.2V539.56L2068.63 480.16L2067.75 420.32V369.28H2132.87V566.4C2132.87 610.4 2121.43 642.813 2098.55 663.64C2075.67 684.467 2042.82 694.88 1999.99 694.88ZM1989.43 594.56C1967.43 594.56 1947.48 589.867 1929.59 580.48C1911.99 570.8 1897.76 557.453 1886.91 540.44C1876.35 523.133 1871.07 503.04 1871.07 480.16C1871.07 456.987 1876.35 436.893 1886.91 419.88C1897.76 402.573 1911.99 389.227 1929.59 379.84C1947.48 370.453 1967.43 365.76 1989.43 365.76C2009.38 365.76 2026.98 369.867 2042.23 378.08C2057.48 386 2069.36 398.467 2077.87 415.48C2086.38 432.2 2090.63 453.76 2090.63 480.16C2090.63 506.267 2086.38 527.827 2077.87 544.84C2069.36 561.56 2057.48 574.027 2042.23 582.24C2026.98 590.453 2009.38 594.56 1989.43 594.56ZM2003.07 538.24C2015.1 538.24 2025.8 535.893 2035.19 531.2C2044.58 526.213 2051.91 519.32 2057.19 510.52C2062.47 501.72 2065.11 491.6 2065.11 480.16C2065.11 468.427 2062.47 458.307 2057.19 449.8C2051.91 441 2044.58 434.253 2035.19 429.56C2025.8 424.573 2015.1 422.08 2003.07 422.08C1991.04 422.08 1980.34 424.573 1970.95 429.56C1961.56 434.253 1954.08 441 1948.51 449.8C1943.23 458.307 1940.59 468.427 1940.59 480.16C1940.59 491.6 1943.23 501.72 1948.51 510.52C1954.08 519.32 1961.56 526.213 1970.95 531.2C1980.34 535.893 1991.04 538.24 2003.07 538.24ZM2309.4 609.52C2284.17 609.52 2261.73 604.24 2242.08 593.68C2222.72 583.12 2207.32 568.747 2195.88 550.56C2184.73 532.08 2179.16 511.107 2179.16 487.64C2179.16 463.88 2184.73 442.907 2195.88 424.72C2207.32 406.24 2222.72 391.867 2242.08 381.6C2261.73 371.04 2284.17 365.76 2309.4 365.76C2334.33 365.76 2356.62 371.04 2376.28 381.6C2395.93 391.867 2411.33 406.093 2422.48 424.28C2433.62 442.467 2439.2 463.587 2439.2 487.64C2439.2 511.107 2433.62 532.08 2422.48 550.56C2411.33 568.747 2395.93 583.12 2376.28 593.68C2356.62 604.24 2334.33 609.52 2309.4 609.52ZM2309.4 553.2C2320.84 553.2 2331.1 550.56 2340.2 545.28C2349.29 540 2356.48 532.52 2361.76 522.84C2367.04 512.867 2369.68 501.133 2369.68 487.64C2369.68 473.853 2367.04 462.12 2361.76 452.44C2356.48 442.76 2349.29 435.28 2340.2 430C2331.1 424.72 2320.84 422.08 2309.4 422.08C2297.96 422.08 2287.69 424.72 2278.6 430C2269.5 435.28 2262.17 442.76 2256.6 452.44C2251.32 462.12 2248.68 473.853 2248.68 487.64C2248.68 501.133 2251.32 512.867 2256.6 522.84C2262.17 532.52 2269.5 540 2278.6 545.28C2287.69 550.56 2297.96 553.2 2309.4 553.2ZM2564.72 609.52C2544.48 609.52 2524.97 607.173 2506.2 602.48C2487.72 597.493 2473.05 591.333 2462.2 584L2485.08 534.72C2495.93 541.467 2508.69 547.04 2523.36 551.44C2538.32 555.547 2552.98 557.6 2567.36 557.6C2583.2 557.6 2594.34 555.693 2600.8 551.88C2607.54 548.067 2610.92 542.787 2610.92 536.04C2610.92 530.467 2608.28 526.36 2603 523.72C2598.01 520.787 2591.26 518.587 2582.76 517.12C2574.25 515.653 2564.86 514.187 2554.6 512.72C2544.62 511.253 2534.5 509.347 2524.24 507C2513.97 504.36 2504.58 500.547 2496.08 495.56C2487.57 490.573 2480.68 483.827 2475.4 475.32C2470.41 466.813 2467.92 455.813 2467.92 442.32C2467.92 427.36 2472.17 414.16 2480.68 402.72C2489.48 391.28 2502.09 382.333 2518.52 375.88C2534.94 369.133 2554.6 365.76 2577.48 365.76C2593.61 365.76 2610.04 367.52 2626.76 371.04C2643.48 374.56 2657.41 379.693 2668.56 386.44L2645.68 435.28C2634.24 428.533 2622.65 423.987 2610.92 421.64C2599.48 419 2588.33 417.68 2577.48 417.68C2562.22 417.68 2551.08 419.733 2544.04 423.84C2537 427.947 2533.48 433.227 2533.48 439.68C2533.48 445.547 2535.97 449.947 2540.96 452.88C2546.24 455.813 2553.13 458.16 2561.64 459.92C2570.14 461.68 2579.38 463.293 2589.36 464.76C2599.62 465.933 2609.89 467.84 2620.16 470.48C2630.42 473.12 2639.66 476.933 2647.88 481.92C2656.38 486.613 2663.28 493.213 2668.56 501.72C2673.84 509.933 2676.48 520.787 2676.48 534.28C2676.48 548.947 2672.08 562 2663.28 573.44C2654.48 584.587 2641.72 593.387 2625 599.84C2608.57 606.293 2588.48 609.52 2564.72 609.52ZM2983.36 609.52C2963.41 609.52 2945.96 605.12 2931 596.32C2916.04 587.52 2904.3 574.173 2895.8 556.28C2887.58 538.093 2883.48 515.213 2883.48 487.64C2883.48 459.773 2887.44 436.893 2895.36 419C2903.28 401.107 2914.72 387.76 2929.68 378.96C2944.64 370.16 2962.53 365.76 2983.36 365.76C3005.65 365.76 3025.6 370.893 3043.2 381.16C3061.09 391.133 3075.17 405.213 3085.44 423.4C3096 441.587 3101.28 463 3101.28 487.64C3101.28 512.573 3096 534.133 3085.44 552.32C3075.17 570.507 3061.09 584.587 3043.2 594.56C3025.6 604.533 3005.65 609.52 2983.36 609.52ZM2843.44 691.36V369.28H2909V417.68L2907.68 488.08L2912.08 558.04V691.36H2843.44ZM2971.48 553.2C2982.92 553.2 2993.04 550.56 3001.84 545.28C3010.93 540 3018.12 532.52 3023.4 522.84C3028.97 512.867 3031.76 501.133 3031.76 487.64C3031.76 473.853 3028.97 462.12 3023.4 452.44C3018.12 442.76 3010.93 435.28 3001.84 430C2993.04 424.72 2982.92 422.08 2971.48 422.08C2960.04 422.08 2949.77 424.72 2940.68 430C2931.58 435.28 2924.4 442.76 2919.12 452.44C2913.84 462.12 2911.2 473.853 2911.2 487.64C2911.2 501.133 2913.84 512.867 2919.12 522.84C2924.4 532.52 2931.58 540 2940.68 545.28C2949.77 550.56 2960.04 553.2 2971.48 553.2ZM3288.56 606V559.8L3284.16 549.68V466.96C3284.16 452.293 3279.61 440.853 3270.52 432.64C3261.72 424.427 3248.08 420.32 3229.6 420.32C3216.98 420.32 3204.52 422.373 3192.2 426.48C3180.17 430.293 3169.9 435.573 3161.4 442.32L3136.76 394.36C3149.66 385.267 3165.21 378.227 3183.4 373.24C3201.58 368.253 3220.06 365.76 3238.84 365.76C3274.92 365.76 3302.93 374.267 3322.88 391.28C3342.82 408.293 3352.8 434.84 3352.8 470.92V606H3288.56ZM3216.4 609.52C3197.92 609.52 3182.08 606.44 3168.88 600.28C3155.68 593.827 3145.56 585.173 3138.52 574.32C3131.48 563.467 3127.96 551.293 3127.96 537.8C3127.96 523.72 3131.33 511.4 3138.08 500.84C3145.12 490.28 3156.12 482.067 3171.08 476.2C3186.04 470.04 3205.54 466.96 3229.6 466.96H3292.52V507H3237.08C3220.94 507 3209.8 509.64 3203.64 514.92C3197.77 520.2 3194.84 526.8 3194.84 534.72C3194.84 543.52 3198.21 550.56 3204.96 555.84C3212 560.827 3221.53 563.32 3233.56 563.32C3245 563.32 3255.26 560.68 3264.36 555.4C3273.45 549.827 3280.05 541.76 3284.16 531.2L3294.72 562.88C3289.73 578.133 3280.64 589.72 3267.44 597.64C3254.24 605.56 3237.22 609.52 3216.4 609.52ZM3414.92 606V369.28H3480.48V436.16L3471.24 416.8C3478.28 400.08 3489.57 387.467 3505.12 378.96C3520.67 370.16 3539.59 365.76 3561.88 365.76V429.12C3558.95 428.827 3556.31 428.68 3553.96 428.68C3551.61 428.387 3549.12 428.24 3546.48 428.24C3527.71 428.24 3512.45 433.667 3500.72 444.52C3489.28 455.08 3483.56 471.653 3483.56 494.24V606H3414.92ZM3732.42 606V559.8L3728.02 549.68V466.96C3728.02 452.293 3723.48 440.853 3714.38 432.64C3705.58 424.427 3691.94 420.32 3673.46 420.32C3660.85 420.32 3648.38 422.373 3636.06 426.48C3624.04 430.293 3613.77 435.573 3605.26 442.32L3580.62 394.36C3593.53 385.267 3609.08 378.227 3627.26 373.24C3645.45 368.253 3663.93 365.76 3682.7 365.76C3718.78 365.76 3746.8 374.267 3766.74 391.28C3786.69 408.293 3796.66 434.84 3796.66 470.92V606H3732.42ZM3660.26 609.52C3641.78 609.52 3625.94 606.44 3612.74 600.28C3599.54 593.827 3589.42 585.173 3582.38 574.32C3575.34 563.467 3571.82 551.293 3571.82 537.8C3571.82 523.72 3575.2 511.4 3581.94 500.84C3588.98 490.28 3599.98 482.067 3614.94 476.2C3629.9 470.04 3649.41 466.96 3673.46 466.96H3736.38V507H3680.94C3664.81 507 3653.66 509.64 3647.5 514.92C3641.64 520.2 3638.7 526.8 3638.7 534.72C3638.7 543.52 3642.08 550.56 3648.82 555.84C3655.86 560.827 3665.4 563.32 3677.42 563.32C3688.86 563.32 3699.13 560.68 3708.22 555.4C3717.32 549.827 3723.92 541.76 3728.02 531.2L3738.58 562.88C3733.6 578.133 3724.5 589.72 3711.3 597.64C3698.1 605.56 3681.09 609.52 3660.26 609.52ZM3649.7 338.92L3709.1 275.56H3783.02L3703.38 338.92H3649.7ZM4115.12 497.7V340H4127.66L4206.7 464.26H4199.86L4278.14 340H4291.06V497.7H4276.24V362.04H4279.66L4206.7 477.18H4199.48L4125.38 362.04H4129.94V497.7H4115.12ZM4014.04 497.7V352.92H3953.24V340H4090.04V352.92H4029.24V497.7H4014.04Z" fill="#EDEDED"/>
<defs>
<linearGradient id="paint0_linear_222_40" x1="495.722" y1="0" x2="495.722" y2="896" gradientUnits="userSpaceOnUse">
<stop stop-color="#2F69FF"/>
<stop offset="0.9999" stop-color="#2F69FF" stop-opacity="0.59"/>
<stop offset="1" stop-color="#2F69FF" stop-opacity="0"/>
</linearGradient>
</defs>
</svg>
