<svg width="4402" height="815" viewBox="0 0 4402 815" fill="none" xmlns="http://www.w3.org/2000/svg">
<path d="M569.574 318.629L450.79 0L326.55 318.629H0L267.368 518.636L172.509 815L450.79 642.249L723.615 815L634.632 518.636L768.316 418.633L902 318.629H569.574Z" fill="url(#paint0_linear_222_40)"/>
<path d="M456.732 558.52C429.746 558.52 405.986 553.24 385.452 542.68C365.212 532.12 349.519 517.747 338.372 499.56C327.226 481.08 321.652 460.107 321.652 436.64C321.652 412.88 327.079 391.907 337.932 373.72C349.079 355.24 364.186 340.867 383.252 330.6C402.319 320.04 423.879 314.76 447.932 314.76C471.106 314.76 491.932 319.747 510.412 329.72C529.186 339.4 543.999 353.48 554.852 371.96C565.706 390.147 571.132 412 571.132 437.52C571.132 440.16 570.986 443.24 570.692 446.76C570.399 449.987 570.106 453.067 569.812 456H377.532V415.96H533.732L507.332 427.84C507.332 415.52 504.839 404.813 499.852 395.72C494.866 386.627 487.972 379.587 479.172 374.6C470.372 369.32 460.106 366.68 448.372 366.68C436.639 366.68 426.226 369.32 417.132 374.6C408.332 379.587 401.439 386.773 396.452 396.16C391.466 405.253 388.972 416.107 388.972 428.72V439.28C388.972 452.187 391.759 463.627 397.332 473.6C403.199 483.28 411.266 490.76 421.532 496.04C432.092 501.027 444.412 503.52 458.492 503.52C471.106 503.52 482.106 501.613 491.492 497.8C501.172 493.987 509.972 488.267 517.892 480.64L554.412 520.24C543.559 532.56 529.919 542.093 513.492 548.84C497.066 555.293 478.146 558.52 456.732 558.52ZM919.99 314.76C938.764 314.76 955.337 318.573 969.71 326.2C984.377 333.533 995.817 344.973 1004.03 360.52C1012.54 375.773 1016.79 395.427 1016.79 419.48V555H948.15V430.04C948.15 410.973 944.19 396.893 936.27 387.8C928.35 378.707 917.204 374.16 902.83 374.16C892.857 374.16 883.91 376.507 875.99 381.2C868.07 385.6 861.91 392.347 857.51 401.44C853.11 410.533 850.91 422.12 850.91 436.2V555H782.27V430.04C782.27 410.973 778.31 396.893 770.39 387.8C762.764 378.707 751.764 374.16 737.39 374.16C727.417 374.16 718.47 376.507 710.55 381.2C702.63 385.6 696.47 392.347 692.07 401.44C687.67 410.533 685.47 422.12 685.47 436.2V555H616.83V318.28H682.39V382.96L670.07 364.04C678.284 347.907 689.87 335.733 704.83 327.52C720.084 319.013 737.39 314.76 756.75 314.76C778.457 314.76 797.377 320.333 813.51 331.48C829.937 342.333 840.79 359.053 846.07 381.64L821.87 375.04C829.79 356.56 842.404 341.893 859.71 331.04C877.31 320.187 897.404 314.76 919.99 314.76ZM1218.23 558.52C1198.29 558.52 1180.83 554.12 1165.87 545.32C1150.91 536.52 1139.18 523.173 1130.67 505.28C1122.46 487.093 1118.35 464.213 1118.35 436.64C1118.35 408.773 1122.31 385.893 1130.23 368C1138.15 350.107 1149.59 336.76 1164.55 327.96C1179.51 319.16 1197.41 314.76 1218.23 314.76C1240.53 314.76 1260.47 319.893 1278.07 330.16C1295.97 340.133 1310.05 354.213 1320.31 372.4C1330.87 390.587 1336.15 412 1336.15 436.64C1336.15 461.573 1330.87 483.133 1320.31 501.32C1310.05 519.507 1295.97 533.587 1278.07 543.56C1260.47 553.533 1240.53 558.52 1218.23 558.52ZM1078.31 640.36V318.28H1143.87V366.68L1142.55 437.08L1146.95 507.04V640.36H1078.31ZM1206.35 502.2C1217.79 502.2 1227.91 499.56 1236.71 494.28C1245.81 489 1252.99 481.52 1258.27 471.84C1263.85 461.867 1266.63 450.133 1266.63 436.64C1266.63 422.853 1263.85 411.12 1258.27 401.44C1252.99 391.76 1245.81 384.28 1236.71 379C1227.91 373.72 1217.79 371.08 1206.35 371.08C1194.91 371.08 1184.65 373.72 1175.55 379C1166.46 384.28 1159.27 391.76 1153.99 401.44C1148.71 411.12 1146.07 422.853 1146.07 436.64C1146.07 450.133 1148.71 461.867 1153.99 471.84C1159.27 481.52 1166.46 489 1175.55 494.28C1184.65 499.56 1194.91 502.2 1206.35 502.2ZM1382.1 555V318.28H1447.66V385.16L1438.42 365.8C1445.46 349.08 1456.76 336.467 1472.3 327.96C1487.85 319.16 1506.77 314.76 1529.06 314.76V378.12C1526.13 377.827 1523.49 377.68 1521.14 377.68C1518.8 377.387 1516.3 377.24 1513.66 377.24C1494.89 377.24 1479.64 382.667 1467.9 393.52C1456.46 404.08 1450.74 420.653 1450.74 443.24V555H1382.1ZM1685.64 558.52C1658.65 558.52 1634.89 553.24 1614.36 542.68C1594.12 532.12 1578.43 517.747 1567.28 499.56C1556.13 481.08 1550.56 460.107 1550.56 436.64C1550.56 412.88 1555.99 391.907 1566.84 373.72C1577.99 355.24 1593.09 340.867 1612.16 330.6C1631.23 320.04 1652.79 314.76 1676.84 314.76C1700.01 314.76 1720.84 319.747 1739.32 329.72C1758.09 339.4 1772.91 353.48 1783.76 371.96C1794.61 390.147 1800.04 412 1800.04 437.52C1800.04 440.16 1799.89 443.24 1799.6 446.76C1799.31 449.987 1799.01 453.067 1798.72 456H1606.44V415.96H1762.64L1736.24 427.84C1736.24 415.52 1733.75 404.813 1728.76 395.72C1723.77 386.627 1716.88 379.587 1708.08 374.6C1699.28 369.32 1689.01 366.68 1677.28 366.68C1665.55 366.68 1655.13 369.32 1646.04 374.6C1637.24 379.587 1630.35 386.773 1625.36 396.16C1620.37 405.253 1617.88 416.107 1617.88 428.72V439.28C1617.88 452.187 1620.67 463.627 1626.24 473.6C1632.11 483.28 1640.17 490.76 1650.44 496.04C1661 501.027 1673.32 503.52 1687.4 503.52C1700.01 503.52 1711.01 501.613 1720.4 497.8C1730.08 493.987 1738.88 488.267 1746.8 480.64L1783.32 520.24C1772.47 532.56 1758.83 542.093 1742.4 548.84C1725.97 555.293 1707.05 558.52 1685.64 558.52ZM1957.06 643.88C1934.76 643.88 1913.2 641.093 1892.38 635.52C1871.84 630.24 1854.68 622.173 1840.9 611.32L1868.18 562.04C1878.15 570.253 1890.76 576.707 1906.02 581.4C1921.56 586.387 1936.82 588.88 1951.78 588.88C1976.12 588.88 1993.72 583.453 2004.58 572.6C2015.72 561.747 2021.3 545.613 2021.3 524.2V488.56L2025.7 429.16L2024.82 369.32V318.28H2089.94V515.4C2089.94 559.4 2078.5 591.813 2055.62 612.64C2032.74 633.467 1999.88 643.88 1957.06 643.88ZM1946.5 543.56C1924.5 543.56 1904.55 538.867 1886.66 529.48C1869.06 519.8 1854.83 506.453 1843.98 489.44C1833.42 472.133 1828.14 452.04 1828.14 429.16C1828.14 405.987 1833.42 385.893 1843.98 368.88C1854.83 351.573 1869.06 338.227 1886.66 328.84C1904.55 319.453 1924.5 314.76 1946.5 314.76C1966.44 314.76 1984.04 318.867 1999.3 327.08C2014.55 335 2026.43 347.467 2034.94 364.48C2043.44 381.2 2047.7 402.76 2047.7 429.16C2047.7 455.267 2043.44 476.827 2034.94 493.84C2026.43 510.56 2014.55 523.027 1999.3 531.24C1984.04 539.453 1966.44 543.56 1946.5 543.56ZM1960.14 487.24C1972.16 487.24 1982.87 484.893 1992.26 480.2C2001.64 475.213 2008.98 468.32 2014.26 459.52C2019.54 450.72 2022.18 440.6 2022.18 429.16C2022.18 417.427 2019.54 407.307 2014.26 398.8C2008.98 390 2001.64 383.253 1992.26 378.56C1982.87 373.573 1972.16 371.08 1960.14 371.08C1948.11 371.08 1937.4 373.573 1928.02 378.56C1918.63 383.253 1911.15 390 1905.58 398.8C1900.3 407.307 1897.66 417.427 1897.66 429.16C1897.66 440.6 1900.3 450.72 1905.58 459.52C1911.15 468.32 1918.63 475.213 1928.02 480.2C1937.4 484.893 1948.11 487.24 1960.14 487.24ZM2266.46 558.52C2241.24 558.52 2218.8 553.24 2199.14 542.68C2179.78 532.12 2164.38 517.747 2152.94 499.56C2141.8 481.08 2136.22 460.107 2136.22 436.64C2136.22 412.88 2141.8 391.907 2152.94 373.72C2164.38 355.24 2179.78 340.867 2199.14 330.6C2218.8 320.04 2241.24 314.76 2266.46 314.76C2291.4 314.76 2313.69 320.04 2333.34 330.6C2353 340.867 2368.4 355.093 2379.54 373.28C2390.69 391.467 2396.26 412.587 2396.26 436.64C2396.26 460.107 2390.69 481.08 2379.54 499.56C2368.4 517.747 2353 532.12 2333.34 542.68C2313.69 553.24 2291.4 558.52 2266.46 558.52ZM2266.46 502.2C2277.9 502.2 2288.17 499.56 2297.26 494.28C2306.36 489 2313.54 481.52 2318.82 471.84C2324.1 461.867 2326.74 450.133 2326.74 436.64C2326.74 422.853 2324.1 411.12 2318.82 401.44C2313.54 391.76 2306.36 384.28 2297.26 379C2288.17 373.72 2277.9 371.08 2266.46 371.08C2255.02 371.08 2244.76 373.72 2235.66 379C2226.57 384.28 2219.24 391.76 2213.66 401.44C2208.38 411.12 2205.74 422.853 2205.74 436.64C2205.74 450.133 2208.38 461.867 2213.66 471.84C2219.24 481.52 2226.57 489 2235.66 494.28C2244.76 499.56 2255.02 502.2 2266.46 502.2ZM2521.78 558.52C2501.54 558.52 2482.04 556.173 2463.26 551.48C2444.78 546.493 2430.12 540.333 2419.26 533L2442.14 483.72C2453 490.467 2465.76 496.04 2480.42 500.44C2495.38 504.547 2510.05 506.6 2524.42 506.6C2540.26 506.6 2551.41 504.693 2557.86 500.88C2564.61 497.067 2567.98 491.787 2567.98 485.04C2567.98 479.467 2565.34 475.36 2560.06 472.72C2555.08 469.787 2548.33 467.587 2539.82 466.12C2531.32 464.653 2521.93 463.187 2511.66 461.72C2501.69 460.253 2491.57 458.347 2481.3 456C2471.04 453.36 2461.65 449.547 2453.14 444.56C2444.64 439.573 2437.74 432.827 2432.46 424.32C2427.48 415.813 2424.98 404.813 2424.98 391.32C2424.98 376.36 2429.24 363.16 2437.74 351.72C2446.54 340.28 2459.16 331.333 2475.58 324.88C2492.01 318.133 2511.66 314.76 2534.54 314.76C2550.68 314.76 2567.1 316.52 2583.82 320.04C2600.54 323.56 2614.48 328.693 2625.62 335.44L2602.74 384.28C2591.3 377.533 2579.72 372.987 2567.98 370.64C2556.54 368 2545.4 366.68 2534.54 366.68C2519.29 366.68 2508.14 368.733 2501.1 372.84C2494.06 376.947 2490.54 382.227 2490.54 388.68C2490.54 394.547 2493.04 398.947 2498.02 401.88C2503.3 404.813 2510.2 407.16 2518.7 408.92C2527.21 410.68 2536.45 412.293 2546.42 413.76C2556.69 414.933 2566.96 416.84 2577.22 419.48C2587.49 422.12 2596.73 425.933 2604.94 430.92C2613.45 435.613 2620.34 442.213 2625.62 450.72C2630.9 458.933 2633.54 469.787 2633.54 483.28C2633.54 497.947 2629.14 511 2620.34 522.44C2611.54 533.587 2598.78 542.387 2582.06 548.84C2565.64 555.293 2545.54 558.52 2521.78 558.52ZM2940.42 558.52C2920.48 558.52 2903.02 554.12 2888.06 545.32C2873.1 536.52 2861.37 523.173 2852.86 505.28C2844.65 487.093 2840.54 464.213 2840.54 436.64C2840.54 408.773 2844.5 385.893 2852.42 368C2860.34 350.107 2871.78 336.76 2886.74 327.96C2901.7 319.16 2919.6 314.76 2940.42 314.76C2962.72 314.76 2982.66 319.893 3000.26 330.16C3018.16 340.133 3032.24 354.213 3042.5 372.4C3053.06 390.587 3058.34 412 3058.34 436.64C3058.34 461.573 3053.06 483.133 3042.5 501.32C3032.24 519.507 3018.16 533.587 3000.26 543.56C2982.66 553.533 2962.72 558.52 2940.42 558.52ZM2800.5 640.36V318.28H2866.06V366.68L2864.74 437.08L2869.14 507.04V640.36H2800.5ZM2928.54 502.2C2939.98 502.2 2950.1 499.56 2958.9 494.28C2968 489 2975.18 481.52 2980.46 471.84C2986.04 461.867 2988.82 450.133 2988.82 436.64C2988.82 422.853 2986.04 411.12 2980.46 401.44C2975.18 391.76 2968 384.28 2958.9 379C2950.1 373.72 2939.98 371.08 2928.54 371.08C2917.1 371.08 2906.84 373.72 2897.74 379C2888.65 384.28 2881.46 391.76 2876.18 401.44C2870.9 411.12 2868.26 422.853 2868.26 436.64C2868.26 450.133 2870.9 461.867 2876.18 471.84C2881.46 481.52 2888.65 489 2897.74 494.28C2906.84 499.56 2917.1 502.2 2928.54 502.2ZM3245.62 555V508.8L3241.22 498.68V415.96C3241.22 401.293 3236.68 389.853 3227.58 381.64C3218.78 373.427 3205.14 369.32 3186.66 369.32C3174.05 369.32 3161.58 371.373 3149.26 375.48C3137.24 379.293 3126.97 384.573 3118.46 391.32L3093.82 343.36C3106.73 334.267 3122.28 327.227 3140.46 322.24C3158.65 317.253 3177.13 314.76 3195.9 314.76C3231.98 314.76 3260 323.267 3279.94 340.28C3299.89 357.293 3309.86 383.84 3309.86 419.92V555H3245.62ZM3173.46 558.52C3154.98 558.52 3139.14 555.44 3125.94 549.28C3112.74 542.827 3102.62 534.173 3095.58 523.32C3088.54 512.467 3085.02 500.293 3085.02 486.8C3085.02 472.72 3088.4 460.4 3095.14 449.84C3102.18 439.28 3113.18 431.067 3128.14 425.2C3143.1 419.04 3162.61 415.96 3186.66 415.96H3249.58V456H3194.14C3178.01 456 3166.86 458.64 3160.7 463.92C3154.84 469.2 3151.9 475.8 3151.9 483.72C3151.9 492.52 3155.28 499.56 3162.02 504.84C3169.06 509.827 3178.6 512.32 3190.62 512.32C3202.06 512.32 3212.33 509.68 3221.42 504.4C3230.52 498.827 3237.12 490.76 3241.22 480.2L3251.78 511.88C3246.8 527.133 3237.7 538.72 3224.5 546.64C3211.3 554.56 3194.29 558.52 3173.46 558.52ZM3371.99 555V318.28H3437.55V385.16L3428.31 365.8C3435.35 349.08 3446.64 336.467 3462.19 327.96C3477.73 319.16 3496.65 314.76 3518.95 314.76V378.12C3516.01 377.827 3513.37 377.68 3511.03 377.68C3508.68 377.387 3506.19 377.24 3503.55 377.24C3484.77 377.24 3469.52 382.667 3457.79 393.52C3446.35 404.08 3440.63 420.653 3440.63 443.24V555H3371.99ZM3689.49 555V508.8L3685.09 498.68V415.96C3685.09 401.293 3680.54 389.853 3671.45 381.64C3662.65 373.427 3649.01 369.32 3630.53 369.32C3617.92 369.32 3605.45 371.373 3593.13 375.48C3581.1 379.293 3570.84 384.573 3562.33 391.32L3537.69 343.36C3550.6 334.267 3566.14 327.227 3584.33 322.24C3602.52 317.253 3621 314.76 3639.77 314.76C3675.85 314.76 3703.86 323.267 3723.81 340.28C3743.76 357.293 3753.73 383.84 3753.73 419.92V555H3689.49ZM3617.33 558.52C3598.85 558.52 3583.01 555.44 3569.81 549.28C3556.61 542.827 3546.49 534.173 3539.45 523.32C3532.41 512.467 3528.89 500.293 3528.89 486.8C3528.89 472.72 3532.26 460.4 3539.01 449.84C3546.05 439.28 3557.05 431.067 3572.01 425.2C3586.97 419.04 3606.48 415.96 3630.53 415.96H3693.45V456H3638.01C3621.88 456 3610.73 458.64 3604.57 463.92C3598.7 469.2 3595.77 475.8 3595.77 483.72C3595.77 492.52 3599.14 499.56 3605.89 504.84C3612.93 509.827 3622.46 512.32 3634.49 512.32C3645.93 512.32 3656.2 509.68 3665.29 504.4C3674.38 498.827 3680.98 490.76 3685.09 480.2L3695.65 511.88C3690.66 527.133 3681.57 538.72 3668.37 546.64C3655.17 554.56 3638.16 558.52 3617.33 558.52ZM3606.77 287.92L3666.17 224.56H3740.09L3660.45 287.92H3606.77ZM4063.44 556.14C4044.44 556.14 4026.84 552.72 4010.62 545.88C3994.41 539.04 3980.22 529.54 3968.06 517.38C3955.9 504.967 3946.4 490.653 3939.56 474.44C3932.98 458.227 3929.68 440.747 3929.68 422C3929.68 403.253 3933.1 385.773 3939.94 369.56C3946.78 353.347 3956.28 339.16 3968.44 327C3980.6 314.587 3994.79 304.96 4011 298.12C4027.47 291.28 4045.2 287.86 4064.2 287.86C4083.2 287.86 4100.81 291.28 4117.02 298.12C4133.49 304.707 4147.68 314.08 4159.58 326.24C4171.74 338.4 4181.12 352.587 4187.7 368.8C4194.54 384.76 4197.96 402.24 4197.96 421.24C4197.96 440.24 4194.54 457.973 4187.7 474.44C4180.86 490.653 4171.24 504.967 4158.82 517.38C4146.66 529.54 4132.48 539.04 4116.26 545.88C4100.05 552.72 4082.44 556.14 4063.44 556.14ZM4115.88 499.9L4076.74 439.48H4092.7L4131.84 499.9H4115.88ZM4063.44 545.12C4080.67 545.12 4096.76 541.953 4111.7 535.62C4126.65 529.033 4139.7 520.167 4150.84 509.02C4161.99 497.873 4170.73 484.827 4177.06 469.88C4183.4 454.68 4186.56 438.467 4186.56 421.24C4186.56 403.76 4183.4 387.673 4177.06 372.98C4170.98 358.287 4162.37 345.367 4151.22 334.22C4140.33 323.073 4127.41 314.46 4112.46 308.38C4097.77 302.047 4081.68 298.88 4064.2 298.88C4046.72 298.88 4030.38 302.047 4015.18 308.38C4000.24 314.713 3987.19 323.58 3976.04 334.98C3965.15 346.127 3956.54 359.173 3950.2 374.12C3944.12 388.813 3941.08 404.773 3941.08 422C3941.08 439.227 3944.12 455.313 3950.2 470.26C3956.54 484.953 3965.15 498 3976.04 509.4C3987.19 520.547 4000.24 529.287 4015.18 535.62C4030.13 541.953 4046.22 545.12 4063.44 545.12ZM4012.52 499.9V344.1H4071.04C4089.54 344.1 4104.1 348.787 4114.74 358.16C4125.38 367.28 4130.7 379.567 4130.7 395.02C4130.7 410.98 4125.38 423.52 4114.74 432.64C4104.1 441.76 4089.54 446.32 4071.04 446.32H4027.34V499.9H4012.52ZM4026.96 433.4H4069.9C4084.6 433.4 4096 430.107 4104.1 423.52C4112.21 416.68 4116.26 407.18 4116.26 395.02C4116.26 383.113 4112.21 373.867 4104.1 367.28C4096 360.44 4084.6 357.02 4069.9 357.02H4026.96V433.4Z" fill="#F9F9F9"/>
<defs>
<linearGradient id="paint0_linear_222_40" x1="451" y1="0" x2="451" y2="815" gradientUnits="userSpaceOnUse">
<stop stop-color="#2F69FF"/>
<stop offset="0.9999" stop-color="#2F69FF"/>
<stop offset="1" stop-color="#2F69FF" stop-opacity="0"/>
</linearGradient>
</defs>
</svg>
